<svg width="1600" height="1200" viewBox="0 0 1600 1200" fill="none" xmlns="http://www.w3.org/2000/svg">
<g clip-path="url(#clip0_1_121)">
<rect width="1600" height="1200" fill="#DD85E2"/>
<g filter="url(#filter0_d_1_121)">
<rect x="199" y="274" width="1202.04" height="652" rx="42.93" fill="#C6C6C6"/>
</g>
<rect x="252.663" y="327.663" width="1094.72" height="246.848" fill="#5F645F"/>
<rect x="263.395" y="338.395" width="1083.98" height="236.115" fill="#121212"/>
<path d="M343.237 444.058V422.66H337.871V444.058H343.237ZM316.406 417.293V401.195H337.871V395.828H311.107V444.058H316.406V422.66H337.871V417.293H316.406ZM343.237 417.293V401.195H337.871V417.293H343.237ZM374.098 406.561V395.828H368.732V406.561H374.098ZM390.197 444.058V433.392H384.831V444.058H390.197ZM379.465 417.293V406.561H374.098V417.293H379.465ZM358 444.058V433.392H352.7V444.058H358ZM379.465 417.293V428.026H363.366V417.293H358V433.392H384.831V417.293H379.465ZM368.732 417.293V406.561H363.366V417.293H368.732ZM421.064 444.125V438.758H404.965V444.125H421.064ZM426.43 438.758V422.66H421.064V438.758H426.43ZM404.965 438.758V433.392H399.666V438.758H404.965ZM421.064 401.195V395.828H404.965V401.195H421.064ZM426.43 406.561V401.195H421.064V406.561H426.43ZM404.965 417.293V401.195H399.666V417.293H404.965ZM421.064 422.66V417.293H404.965V422.66H421.064ZM441.187 401.195H462.652V395.828H435.888V444.058H441.187V422.66H462.652V417.293H441.187V401.195ZM468.018 417.293V401.195H462.652V417.293H468.018ZM504.246 444.125V438.758H482.781V444.125H504.246ZM482.781 438.758V395.828H477.482V438.758H482.781ZM509.612 438.758V395.828H504.246V438.758H509.612ZM519.075 395.828V401.195H529.741V444.058H535.174V401.195H545.84V395.828H519.075ZM560.597 444.058V395.828H555.298V444.058H560.597ZM586.065 422.66V411.927H580.699V422.66H586.065ZM575.333 401.195V395.828H570.034V444.058H575.333V411.927H580.699V401.195H575.333ZM596.798 395.828V428.026H591.432V438.758H596.798V444.058H602.164V395.828H596.798ZM591.432 428.026V422.66H586.065V428.026H591.432Z" fill="#00FF00"/>
<path d="M313.291 483.056V472.753H323.594V469.318H309.899V500.185H323.594V496.794H313.291V486.49H323.594V483.056H313.291ZM327.028 496.794V486.49H323.594V496.794H327.028ZM327.028 483.056V472.753H323.594V483.056H327.028ZM336.473 496.794V472.753H333.082V496.794H336.473ZM350.211 500.228V496.794H336.473V500.228H350.211ZM353.645 496.794V472.753H350.211V496.794H353.645ZM350.211 472.753V469.318H336.473V472.753H350.211ZM369.962 486.49V479.622H366.527V486.49H369.962ZM363.093 472.753V469.318H359.702V500.185H363.093V479.622H366.527V472.753H363.093ZM376.831 469.318V489.925H373.396V496.794H376.831V500.185H380.265V469.318H376.831ZM373.396 489.925V486.49H369.962V489.925H373.396ZM403.451 472.753V469.318H386.321V500.185H403.451V496.794H389.713V486.49H400.016V483.056H389.713V472.753H403.451ZM412.895 476.187V469.318H409.504V476.187H412.895ZM419.764 483.056V479.622H416.33V483.056H419.764ZM423.198 500.228V483.056H419.807V500.228H423.198ZM416.33 479.622V476.187H412.895V479.622H416.33ZM433.502 476.187V469.318H430.067V476.187H433.502ZM426.633 483.056V479.622H423.198V483.056H426.633ZM430.067 479.622V476.187H426.633V479.622H430.067ZM464.364 496.794V489.925H460.973V496.794H464.364ZM454.061 476.187V469.318H450.67V500.185H454.061V483.056H457.495V476.187H454.061ZM467.799 489.925V483.056H464.364V489.925H467.799ZM471.233 469.318V476.187H467.799V483.056H471.233V500.185H474.667V469.318H471.233ZM460.93 489.925V483.056H457.495V489.925H460.93Z" fill="#00FF00"/>
<path d="M263.5 563.778H1347.38V574.51H252.663L263.5 563.778Z" fill="white"/>
<rect x="252.663" y="621.465" width="1094.72" height="142.206" fill="#5F645F"/>
<path d="M263.5 752.938L1347.38 752.938V763.671H252.663L263.5 752.938Z" fill="white"/>
<rect x="263.395" y="657.809" width="214.65" height="69.7613" fill="#8F8F8F"/>
<rect x="266.078" y="634.881" width="209.284" height="115.374" stroke="black" stroke-width="5.36626"/>
<g filter="url(#filter1_i_1_121)">
<rect x="268.761" y="637.564" width="203.918" height="110.008" fill="url(#paint0_linear_1_121)"/>
</g>
<path d="M359.093 672.221V712.915L391.067 692.568L359.093 672.221Z" fill="black"/>
<rect x="478.045" y="657.809" width="214.65" height="69.7613" fill="#C6C6C6"/>
<rect x="478.045" y="632.198" width="214.65" height="25.6116" fill="white"/>
<rect x="478.045" y="727.327" width="214.65" height="25.6116" fill="#5F645F"/>
<rect x="480.728" y="634.881" width="209.284" height="115.374" stroke="black" stroke-width="5.36626"/>
<path d="M567.93 712.915H579.557V672.221H567.93V712.915ZM591.184 672.221V712.915H602.81V672.221H591.184Z" fill="#212121"/>
<rect x="692.695" y="657.809" width="214.65" height="69.7613" fill="#C6C6C6"/>
<rect x="692.695" y="632.198" width="214.65" height="25.6116" fill="white"/>
<rect x="695.379" y="634.881" width="209.284" height="115.374" stroke="black" stroke-width="5.36626"/>
<path d="M782.58 675.128H817.461V710.008H782.58V675.128Z" fill="#212121"/>
<rect x="907.346" y="657.809" width="214.65" height="69.7613" fill="#C6C6C6"/>
<rect x="907.346" y="632.198" width="214.65" height="25.6116" fill="white"/>
<rect x="910.029" y="634.881" width="209.284" height="115.374" stroke="black" stroke-width="5.36626"/>
<path d="M997.231 675.128H1003.04V710.008H997.231V675.128ZM1007.4 692.568L1032.11 710.008V675.128L1007.4 692.568Z" fill="#212121"/>
<rect x="1122" y="657.809" width="214.65" height="69.7613" fill="#C6C6C6"/>
<rect x="1122" y="632.198" width="214.65" height="25.6116" fill="white"/>
<rect x="1124.68" y="634.881" width="209.284" height="115.374" stroke="black" stroke-width="5.36626"/>
<path d="M1246.76 710.008L1240.95 710.008L1240.95 675.127L1246.76 675.127L1246.76 710.008ZM1236.59 692.568L1211.88 675.127L1211.88 710.008L1236.59 692.568Z" fill="#212121"/>
<path d="M1336.65 338.395L1347.38 327.5V574.51H1336.65V338.395Z" fill="white"/>
<path d="M1336.65 632.198L1347.38 621.5V763.671H1336.65V632.198Z" fill="white"/>
<rect x="252.663" y="798.552" width="1094.72" height="68.4198" fill="#5F645F"/>
<path d="M263.5 856.239H1347.38V866.971H252.663L263.5 856.239Z" fill="white"/>
<path d="M1336.65 809.284L1347.38 798.5V866.971H1336.65V809.284Z" fill="white"/>
<rect x="263.395" y="809.284" width="1073.25" height="46.9547" fill="#121212"/>
<rect x="263.395" y="809.284" width="246.848" height="46.9547" fill="#0000FF"/>
<rect x="1028.09" y="421.572" width="44.2716" height="99.2757" fill="#6868FF" fill-opacity="0.1"/>
<rect x="1028.09" y="435.274" width="44.2716" height="85.5739" fill="#0000FF"/>
<rect x="1101.87" y="409.229" width="44.2716" height="111.618" fill="#6868FF" fill-opacity="0.1"/>
<rect x="1101.87" y="470.62" width="44.2716" height="50.2282" fill="#0000FF"/>
<rect x="1175.66" y="381.325" width="44.2716" height="139.523" fill="#6868FF" fill-opacity="0.1"/>
<rect x="1175.66" y="403.649" width="44.2716" height="117.199" fill="#0000FF"/>
<rect x="1249.44" y="403.649" width="44.2716" height="117.199" fill="#0000FF"/>
<rect x="1249.44" y="381.325" width="44.2716" height="139.523" fill="#6868FF" fill-opacity="0.1"/>
</g>
<defs>
<filter id="filter0_d_1_121" x="137.288" y="232.412" width="1325.47" height="775.424" filterUnits="userSpaceOnUse" color-interpolation-filters="sRGB">
<feFlood flood-opacity="0" result="BackgroundImageFix"/>
<feColorMatrix in="SourceAlpha" type="matrix" values="0 0 0 0 0 0 0 0 0 0 0 0 0 0 0 0 0 0 127 0" result="hardAlpha"/>
<feMorphology radius="8.04938" operator="dilate" in="SourceAlpha" result="effect1_dropShadow_1_121"/>
<feOffset dy="20.1235"/>
<feGaussianBlur stdDeviation="26.8313"/>
<feColorMatrix type="matrix" values="0 0 0 0 0.247222 0 0 0 0 0.247222 0 0 0 0 0.741667 0 0 0 0.6 0"/>
<feBlend mode="normal" in2="BackgroundImageFix" result="effect1_dropShadow_1_121"/>
<feBlend mode="normal" in="SourceGraphic" in2="effect1_dropShadow_1_121" result="shape"/>
</filter>
<filter id="filter1_i_1_121" x="268.761" y="637.564" width="203.918" height="112.691" filterUnits="userSpaceOnUse" color-interpolation-filters="sRGB">
<feFlood flood-opacity="0" result="BackgroundImageFix"/>
<feBlend mode="normal" in="SourceGraphic" in2="BackgroundImageFix" result="shape"/>
<feColorMatrix in="SourceAlpha" type="matrix" values="0 0 0 0 0 0 0 0 0 0 0 0 0 0 0 0 0 0 127 0" result="hardAlpha"/>
<feOffset dy="2.68313"/>
<feGaussianBlur stdDeviation="2.01235"/>
<feComposite in2="hardAlpha" operator="arithmetic" k2="-1" k3="1"/>
<feColorMatrix type="matrix" values="0 0 0 0 0 0 0 0 0 0 0 0 0 0 0 0 0 0 0.5 0"/>
<feBlend mode="normal" in2="shape" result="effect1_innerShadow_1_121"/>
</filter>
<linearGradient id="paint0_linear_1_121" x1="370.72" y1="637.564" x2="370.72" y2="747.572" gradientUnits="userSpaceOnUse">
<stop stop-color="#2C2E2F"/>
<stop offset="1" stop-color="#404142"/>
</linearGradient>
<clipPath id="clip0_1_121">
<rect width="1600" height="1200" fill="white"/>
</clipPath>
</defs>
</svg>
